<svg width="24" height="25" viewBox="0 0 24 25" fill="none" xmlns="http://www.w3.org/2000/svg">
<path d="M23.3538 9.97108L13.3538 0.536077C13.3489 0.531812 13.3443 0.527218 13.34 0.522327C12.9718 0.187494 12.492 0.00195313 11.9944 0.00195312C11.4967 0.00195313 11.0169 0.187494 10.6488 0.522327L10.635 0.536077L0.64625 9.97108C0.442497 10.1584 0.279855 10.3861 0.168614 10.6395C0.057374 10.893 -4.20536e-05 11.1668 2.31098e-08 11.4436V22.9998C2.31098e-08 23.5303 0.210714 24.039 0.585786 24.414C0.960859 24.7891 1.46957 24.9998 2 24.9998H8C8.53043 24.9998 9.03914 24.7891 9.41421 24.414C9.78929 24.039 10 23.5303 10 22.9998V16.9998H14V22.9998C14 23.5303 14.2107 24.039 14.5858 24.414C14.9609 24.7891 15.4696 24.9998 16 24.9998H22C22.5304 24.9998 23.0391 24.7891 23.4142 24.414C23.7893 24.039 24 23.5303 24 22.9998V11.4436C24 11.1668 23.9426 10.893 23.8314 10.6395C23.7201 10.3861 23.5575 10.1584 23.3538 9.97108ZM22 22.9998H16V16.9998C16 16.4694 15.7893 15.9607 15.4142 15.5856C15.0391 15.2105 14.5304 14.9998 14 14.9998H10C9.46957 14.9998 8.96086 15.2105 8.58579 15.5856C8.21071 15.9607 8 16.4694 8 16.9998V22.9998H2V11.4436L2.01375 11.4311L12 1.99983L21.9875 11.4286L22.0012 11.4411L22 22.9998Z" fill="#F8F8F8"/>
</svg>
