<svg width="25" height="26" viewBox="0 0 25 26" fill="none" xmlns="http://www.w3.org/2000/svg">
<path d="M9.79152 9.56724L4.00619 12.5557L7.70357 19.7946L13.5949 17.245L9.79152 9.56724Z" fill="#FFB267"/>
<path d="M11.4383 6.86454L9.56039 3.2924L16.7736 4.10079L18.9649 7.60653L11.4383 6.86454Z" fill="#FFB267"/>
<path d="M10.5904 7.63371L20.7544 8.61058L15.6128 17.6411L10.5904 7.63371Z" fill="#F8F8F8"/>
<path d="M3.29857 4.27278L7.63827 2.55482L10.1297 7.39994L2.1188 11.5841L3.29857 4.27278Z" fill="#F8F8F8"/>
<path d="M13.7845 25L7.20038 21.6848L15.5072 18.2219L17.485 21.8157L13.7845 25Z" fill="#F8F8F8"/>
<path d="M21.0848 8.3332L17.9752 3.77031L24 6.44139L22.1905 13.1336L21.0848 8.3332Z" fill="#F8F8F8"/>
<path d="M8.20586 2.32874L16.8712 3.30354L11.5536 1L8.20586 2.32874Z" fill="#F8F8F8"/>
<path d="M6.66081 21.3266L1.98314 12.4402L1 18.533L6.66081 21.3266Z" fill="#F8F8F8"/>
<path d="M16.6843 17.3093L20.4615 10.4925L21.3773 13.6688L17.9436 20.144L16.6843 17.3093Z" fill="#FFB267"/>
<path d="M17.7483 21.4836L22.0764 13.5651L20.53 19.1604L17.7483 21.4836Z" fill="#F8F8F8"/>
<path d="M10.5904 7.63371L20.7544 8.61058M10.5904 7.63371L17.384 10.7528M10.5904 7.63371L15.6128 17.6411M20.7544 8.61058L17.384 10.7528M20.7544 8.61058L15.6128 17.6411M17.384 10.7528L15.6128 17.6411M3.29857 4.27278L7.63827 2.55482L10.1297 7.39994M3.29857 4.27278L10.1297 7.39994M3.29857 4.27278L2.1188 11.5841L10.1297 7.39994M15.5072 18.2219L13.7845 25M15.5072 18.2219L7.20038 21.6848L13.7845 25M15.5072 18.2219L17.485 21.8157L13.7845 25M21.0848 8.3332L17.9752 3.77031L24 6.44139M21.0848 8.3332L24 6.44139M21.0848 8.3332L22.1905 13.1336L24 6.44139M4.00619 12.5557L9.79152 9.56724L13.5949 17.245L7.70357 19.7946L4.00619 12.5557ZM9.56039 3.2924L11.4383 6.86454L18.9649 7.60653L16.7736 4.10079L9.56039 3.2924ZM16.8712 3.30354L8.20586 2.32874L11.5536 1L16.8712 3.30354ZM1.98314 12.4402L6.66081 21.3266L1 18.533L1.98314 12.4402ZM20.4615 10.4925L16.6843 17.3093L17.9436 20.144L21.3773 13.6688L20.4615 10.4925ZM22.0764 13.5651L17.7483 21.4836L20.53 19.1604L22.0764 13.5651Z" stroke="#211D1D"/>
</svg>
