<svg width="27" height="27" viewBox="0 0 27 27" fill="none" xmlns="http://www.w3.org/2000/svg">
<path fill-rule="evenodd" clip-rule="evenodd" d="M13.6766 0.232637C8.74152 1.48872 5.47164 5.65846 5.47862 10.6864C5.48221 13.3629 6.25739 15.7421 7.67581 17.4299L8.20718 18.0624L7.49649 18.7521L6.78602 19.442L6.12397 18.952L5.46213 18.4618L2.81074 21.1171C0.445242 23.4859 0.146673 23.8666 0.0417935 24.6499C-0.0652006 25.449 -0.00662876 25.5968 0.697291 26.3017C1.40121 27.0066 1.5488 27.0653 2.34682 26.9581C3.12898 26.8531 3.50917 26.5541 5.87467 24.1853L8.52626 21.5302L8.03675 20.8674L7.54745 20.2045L8.23636 19.493L8.92506 18.7813L9.55666 19.3134C11.9471 21.3278 16.2436 22.0962 19.4942 21.0908C25.1763 19.3333 28.3821 12.9311 26.4226 7.25482C25.3558 4.165 22.818 1.61853 19.7319 0.541789C18.0891 -0.0314122 15.2775 -0.174977 13.6766 0.232637ZM13.7787 1.30323C9.37376 2.49114 6.51113 6.2035 6.50289 10.7383C6.4976 13.5945 7.44511 15.8365 9.47716 17.7776C11.49 19.7003 13.4531 20.4859 16.229 20.4797C20.8283 20.4698 24.5035 17.6017 25.6713 13.1113C26.5068 9.89934 25.6219 6.63271 23.2198 4.06124C20.8046 1.47581 17.1247 0.400765 13.7787 1.30323ZM13.9392 2.57308C13.3025 2.7518 12.3952 3.1249 11.9232 3.40186C10.6898 4.12583 9.13143 5.87952 8.47445 7.28299C7.9674 8.36629 7.90777 8.73917 7.90777 10.823C7.90777 12.9716 7.95598 13.2507 8.52986 14.4227C11.0795 19.6308 17.8337 20.856 22.039 16.8732C23.2132 15.7611 24.3849 13.7752 24.2576 13.1132C24.118 12.3874 23.5644 12.73 22.9259 13.9378C21.3002 17.0113 18.4 18.56 15.1068 18.1124C11.9232 17.6798 9.30715 15.0601 8.87515 11.872C8.67808 10.4181 8.94197 8.62377 9.51945 7.49029C10.1904 6.17343 11.7452 4.64376 13.0617 4.00577C14.0802 3.51218 14.5255 3.42791 16.1582 3.4205C17.8923 3.41266 18.1917 3.47428 19.4657 4.10211C21.0883 4.90146 22.2234 6.06184 22.9605 7.67429C23.327 8.47576 23.6006 8.81138 23.8877 8.81138C24.4352 8.81138 24.4047 8.31462 23.774 6.95795C23.0682 5.43993 21.4214 3.84675 19.7469 3.06222C18.0447 2.26457 15.7312 2.06955 13.9392 2.57308ZM17.846 7.94004C17.4971 8.15856 16.8392 8.72604 16.384 9.20121L15.5566 10.0649L14.8436 9.43815C14.0792 8.76585 13.5446 8.66591 12.81 9.05764C12.1421 9.41401 11.834 9.8915 11.8264 10.5826C11.8171 11.4121 14.7964 14.5286 15.5984 14.5286C15.9936 14.5286 16.6978 13.9624 18.3107 12.3471C20.37 10.2847 20.4891 10.1179 20.4891 9.29205C20.4891 8.60069 20.373 8.32711 19.9319 7.97985C19.2422 7.4365 18.667 7.42549 17.846 7.94004ZM17.1213 9.97599C16.3383 10.733 15.6141 11.3524 15.512 11.3524C15.4098 11.3524 14.963 10.997 14.519 10.563C13.8593 9.91776 13.6451 9.81549 13.3471 10.0033C12.6885 10.4185 12.8487 10.8073 14.253 12.2L15.6401 13.5757L17.6576 11.5268C19.4583 9.69797 19.6496 9.43074 19.4403 9.0388C19.0654 8.33749 18.6368 8.51091 17.1213 9.97599ZM23.7351 10.617C23.5801 11.0214 24.004 11.3697 24.4449 11.2003C24.8441 11.0468 24.6957 10.4213 24.2392 10.3334C24.0368 10.2942 23.8099 10.4219 23.7351 10.617ZM3.30258 22.1047C1.87719 23.5363 1.03561 24.5451 1.03561 24.8218C1.03561 25.4526 1.75814 26.0402 2.34872 25.8895C2.61494 25.8215 3.80964 24.7829 5.00349 23.5814L7.17403 21.3966L6.37179 20.6121L5.56933 19.8275L3.30258 22.1047Z" fill="#F8F8F8"/>
</svg>
