<svg width="23" height="27" viewBox="0 0 23 27" fill="none" xmlns="http://www.w3.org/2000/svg">
<path fill-rule="evenodd" clip-rule="evenodd" d="M8.44141 0.421875C8.09315 0.806625 7.79172 0.84375 5.01747 0.84375H1.97533L1.35876 1.46032L0.742188 2.07689V13.8141C0.742188 21.4608 0.817914 25.6926 0.959453 25.9569C1.50156 26.9703 1.8032 27 11.5 27C21.1968 27 21.4984 26.9703 22.0405 25.9569C22.1821 25.6926 22.2578 21.4608 22.2578 13.8141V2.07689L21.6412 1.46032L21.0247 0.84375H17.9825C15.2083 0.84375 14.9069 0.806625 14.5586 0.421875C14.215 0.0421875 13.9089 0 11.5 0C9.09109 0 8.78502 0.0421875 8.44141 0.421875ZM9.11598 1.18884C9.03498 1.26963 8.96875 1.69973 8.96875 2.1446V2.95312H11.512H14.0555L13.9905 2.05664L13.9258 1.16016L11.5945 1.10088C10.3122 1.0684 9.19677 1.10784 9.11598 1.18884ZM2.05 2.15156C1.85931 2.34225 1.79688 5.25298 1.79688 13.9567C1.79688 25.1619 1.80911 25.5152 2.20483 25.727C2.46766 25.8675 5.77727 25.9453 11.5 25.9453C17.2227 25.9453 20.5323 25.8675 20.7952 25.727C21.1909 25.5152 21.2031 25.1619 21.2031 13.9567C21.2031 5.25298 21.1407 2.34225 20.95 2.15156C20.7785 1.98007 19.7922 1.89844 17.8914 1.89844H15.0859V2.42578C15.0859 2.95291 15.087 2.95312 17.178 2.95312C18.3287 2.95312 19.4203 3.01071 19.6038 3.08116C19.8934 3.19233 19.9375 3.79118 19.9375 7.60388C19.9375 12.0306 19.8476 12.5615 19.1899 12.0158C18.9415 11.8095 18.8828 11.0211 18.8828 7.88442V4.00781H11.5H4.11719V13.8164V23.625H11.5H18.8828V19.9593C18.8828 16.2443 19.0153 15.5917 19.6854 16.0059C19.8822 16.1274 19.9324 17.2055 19.8894 20.3707L19.832 24.5742H11.5H3.16797L3.11334 13.9356C3.0703 5.56432 3.11523 3.26088 3.32427 3.1282C3.47024 3.03539 4.56269 2.95819 5.75195 2.95629L7.91406 2.95312V2.42578V1.89844H5.10859C3.20784 1.89844 2.22149 1.98007 2.05 2.15156ZM7.43755 7.47837C6.46239 7.82009 6.07616 8.13059 5.6853 8.88637C5.02823 10.1569 5.51929 11.9722 6.73577 12.7693C7.99021 13.5911 9.5193 13.3488 10.6387 12.1506C11.3538 11.3851 11.4795 9.6525 10.8883 8.71151C10.1627 7.55641 8.70297 7.03477 7.43755 7.47837ZM12.6281 8.12827C12.3912 8.7461 12.8768 8.8752 15.2095 8.81423C17.351 8.75813 17.5117 8.72437 17.5117 8.33203C17.5117 7.93863 17.3512 7.90615 15.1347 7.85046C13.1143 7.79984 12.7382 7.84139 12.6281 8.12827ZM7.56159 8.53411C6.27571 9.09352 6.02891 10.5926 7.05407 11.6178C7.84023 12.4038 8.70634 12.428 9.58532 11.6883C10.6959 10.7538 10.4219 9.09246 9.06409 8.52504C8.22477 8.17446 8.39057 8.17341 7.56159 8.53411ZM8.06003 9.84825C7.41562 10.187 7.37659 10.6787 7.96448 11.0491C8.26021 11.2352 8.43993 11.1715 8.8907 10.7209C9.23411 10.3775 9.40033 10.0326 9.32144 9.82695C9.16766 9.42616 8.85295 9.43144 8.06003 9.84825ZM12.6287 10.4473C12.4003 11.0428 12.8673 11.1993 14.6837 11.136C16.2959 11.0799 16.457 11.0358 16.457 10.6523C16.457 10.2672 16.2961 10.2252 14.608 10.1695C13.0673 10.1187 12.7369 10.1651 12.6287 10.4473ZM19.0921 13.8183C18.8929 14.0584 18.8803 14.2147 19.0463 14.3807C19.3663 14.7007 19.9833 14.4203 19.9004 13.9928C19.8057 13.5042 19.4215 13.4213 19.0921 13.8183ZM6.71151 16.0228C4.86855 17.1465 4.97718 19.9163 6.91021 21.0948C8.70866 22.1915 11.0305 20.9682 11.2374 18.8152C11.4186 16.9298 10.2245 15.6109 8.33594 15.6109C7.76577 15.6109 7.11714 15.7754 6.71151 16.0228ZM12.6281 16.3548C12.3912 16.9727 12.8768 17.1018 15.2095 17.0408C17.351 16.9847 17.5117 16.9509 17.5117 16.5586C17.5117 16.1652 17.3512 16.1327 15.1347 16.077C13.1143 16.0264 12.7382 16.068 12.6281 16.3548ZM7.56159 16.7607C6.27571 17.3201 6.02891 18.8192 7.05407 19.8444C7.84023 20.6303 8.70634 20.6546 9.58532 19.9148C10.6959 18.9804 10.4219 17.319 9.06409 16.7516C8.22477 16.401 8.39057 16.4 7.56159 16.7607ZM8.06003 18.0748C7.41562 18.4136 7.37659 18.9053 7.96448 19.2757C8.26021 19.4617 8.43993 19.398 8.8907 18.9475C9.23411 18.6041 9.40033 18.2592 9.32144 18.0535C9.16766 17.6527 8.85295 17.658 8.06003 18.0748ZM12.6287 18.6739C12.4003 19.2694 12.8673 19.4259 14.6837 19.3626C16.2959 19.3065 16.457 19.2624 16.457 18.8789C16.457 18.4937 16.2961 18.4518 14.608 18.3961C13.0673 18.3452 12.7369 18.3916 12.6287 18.6739Z" fill="#F8F8F8"/>
</svg>
