<svg width="23" height="29" viewBox="0 0 23 29" fill="none" xmlns="http://www.w3.org/2000/svg">
<path fill-rule="evenodd" clip-rule="evenodd" d="M4.64468 0.228367C3.69039 0.547367 2.42329 1.78009 1.98539 2.81594C1.46964 4.0353 1.47112 5.89538 1.98855 6.97585C2.41106 7.85786 3.1949 8.71698 4.17007 9.36631L4.75014 9.7526V13.1005C4.75014 15.4024 4.67104 16.5334 4.49702 16.7203C4.3578 16.8698 3.70031 16.9922 3.03586 16.9922C1.9818 16.9922 1.77192 17.0683 1.39054 17.5892C0.820801 18.367 0.835356 19.316 1.42788 20.0342C1.80018 20.4853 2.19358 20.6469 3.2527 20.7833C4.59384 20.9559 4.60481 20.9631 4.88915 21.8633C5.26441 23.0509 5.86453 23.5625 6.88293 23.5625C7.77689 23.5625 7.97728 23.9803 7.38686 24.6144C7.03987 24.9871 6.93208 28.1884 7.24849 28.7238C7.37674 28.9411 8.10658 28.998 10.1455 28.9504L12.8712 28.8867L12.9316 26.6777C12.9704 25.2628 12.9134 24.4687 12.7734 24.4687C12.6531 24.4687 12.5548 24.2263 12.5548 23.9298C12.5548 23.543 12.7358 23.3103 13.1961 23.1057C13.5488 22.9487 13.9759 22.6078 14.1453 22.3481C14.5001 21.8039 14.559 20.261 14.2331 20.0447C13.8683 19.8025 13.3986 20.4024 13.3986 21.1109C13.3986 21.6807 13.2632 21.8397 12.4494 22.2265C11.5552 22.6513 11.5001 22.7294 11.5001 23.5731V24.4687H10.1411H8.78222L8.71725 23.5059L8.65249 22.543L7.41724 22.4297L6.18199 22.3164L5.78901 21.2015C5.31082 19.8437 5.1427 19.7189 3.78848 19.7143C2.58044 19.7105 1.92527 19.3217 2.03981 18.6764C2.10309 18.3198 2.34799 18.2163 3.35353 18.12C4.24242 18.035 4.61831 18.0829 4.69235 18.2899C4.74888 18.4485 4.975 18.5781 5.19459 18.5781C5.57343 18.5781 5.59411 18.3375 5.59685 13.8769C5.60001 8.56292 5.65781 8.10141 6.30686 8.2011C6.73612 8.26681 6.75827 8.41566 6.85952 11.8945C6.9595 15.3308 6.98693 15.5195 7.38686 15.5195C7.70833 15.5195 7.83384 15.3308 7.91421 14.7266C7.99458 14.1223 8.12008 13.9336 8.44155 13.9336C8.76302 13.9336 8.88853 14.1223 8.96889 14.7266C9.04968 15.3337 9.18553 15.5365 9.54897 15.592C9.94427 15.6523 10.0242 15.5576 10.0267 15.0256C10.0312 14.1758 10.3029 13.7578 10.7872 13.8566C11.0772 13.9157 11.2015 14.1688 11.25 14.7988C11.3069 15.5386 11.3816 15.6505 11.7773 15.59C12.1256 15.5367 12.2642 15.3256 12.3439 14.7266C12.4243 14.1223 12.5498 13.9336 12.8712 13.9336C13.2052 13.9336 13.3151 14.1223 13.3986 14.8398C13.483 15.5651 13.599 15.7606 13.9787 15.8186C14.4153 15.8852 14.4533 15.8023 14.4533 14.7818C14.4533 13.9155 14.3465 13.565 13.9652 13.18C13.4697 12.6802 12.265 12.5013 12.0391 12.8941C11.9695 13.0149 11.6581 12.9943 11.2884 12.8443C10.8184 12.6537 10.4944 12.6537 10.0244 12.8443C9.65465 12.9943 9.34331 13.0149 9.2737 12.8941C9.20831 12.7804 8.87587 12.6875 8.53458 12.6875H7.91421L7.92707 11.0449L7.93994 9.40234L8.80563 8.72265C9.87002 7.88709 10.4944 6.63805 10.6079 5.11804C10.8462 1.9226 7.58282 -0.753328 4.64468 0.228367ZM15.9802 0.302453C11.2493 2.14531 12.4821 9.74218 17.5119 9.74218C21.5477 9.74218 23.5618 4.5573 20.7128 1.50187C19.4225 0.117804 17.6239 -0.337813 15.9802 0.302453ZM4.75036 1.38723C3.46786 1.93665 2.64077 3.30259 2.64077 4.87109C2.64077 6.11763 3.02172 6.98197 3.93424 7.80666C4.56642 8.37805 4.62295 8.39073 4.81174 8.00354C5.37431 6.85011 6.76734 6.65141 7.47904 7.62314C7.91294 8.2156 7.92328 8.21764 8.36772 7.79306C8.96447 7.22303 9.59137 5.72205 9.59707 4.85002C9.6131 2.42512 6.8823 0.474187 4.75036 1.38723ZM15.894 1.59205C14.6497 2.29802 14.1369 3.26657 14.1369 4.91119C14.1369 5.97603 14.2423 6.46337 14.5781 6.95025C16.1302 9.20002 18.8935 9.20002 20.4456 6.95025C21.0953 6.0082 21.0681 3.78472 20.3945 2.77017C19.3814 1.24473 17.414 0.729523 15.894 1.59205ZM16.1408 3.77702C16.1408 3.98523 16.2855 4.32756 16.4624 4.53759C16.7508 4.8797 16.7508 4.94925 16.4624 5.20617C16.0286 5.59291 16.049 6.34374 16.4932 6.34374C16.6871 6.34374 17.0058 6.18832 17.2014 5.99823C17.5199 5.68852 17.5846 5.68852 17.8238 5.99823C18.2046 6.49101 18.883 6.43981 18.883 5.91826C18.883 5.68445 18.7383 5.36386 18.5613 5.20617C18.2729 4.94925 18.2729 4.8797 18.5613 4.53759C18.7383 4.32756 18.883 3.98523 18.883 3.77702C18.883 3.29988 18.1839 3.2779 17.8238 3.74394C17.5846 4.05365 17.5199 4.05365 17.2014 3.74394C16.7297 3.2856 16.1408 3.30395 16.1408 3.77702ZM6.45642 4.1087C6.21405 4.38805 6.01577 4.71974 6.01577 4.84594C6.01577 4.97666 5.90714 4.95831 5.76264 4.80312C5.4475 4.46463 4.82186 4.44991 4.63413 4.77616C4.46939 5.06253 5.54369 6.34374 5.94848 6.34374C6.31172 6.34374 7.52418 4.53532 7.44698 4.10848C7.34889 3.56586 6.92723 3.56586 6.45642 4.1087ZM13.4916 17.6936C13.2686 18.081 13.9719 18.7326 14.2689 18.4136C14.4012 18.2716 14.4522 17.9956 14.3824 17.8003C14.2364 17.3918 13.7021 17.3277 13.4916 17.6936ZM8.12514 26.7344V27.8672H10.0236H11.922V26.7344V25.6016H10.0236H8.12514V26.7344Z" fill="#F8F8F8"/>
</svg>
